<svg xmlns="http://www.w3.org/2000/svg" viewBox="0 0 16 16" style="stroke: #909aa5;">
  <path stroke-width="0" fill="#909aa5" d="M13.545 2.77a13.192 13.192 0 0 0-3.257-1.01.05.05 0 0 0-.052.025c-.14.25-.297.576-.406.833a12.18 12.18 0 0 0-3.658 0 8.43 8.43 0 0 0-.411-.833.051.051 0 0 0-.053-.025 13.157 13.157 0 0 0-3.257 1.01.047.047 0 0 0-.021.019C.356 5.888-.212 8.91.066 11.896a.06.06 0 0 0 .021.037 13.268 13.268 0 0 0 3.995 2.02.052.052 0 0 0 .056-.019c.308-.42.583-.863.818-1.33a.05.05 0 0 0-.028-.07 8.725 8.725 0 0 1-1.248-.595.051.051 0 0 1-.005-.085 6.92 6.92 0 0 0 .248-.194.05.05 0 0 1 .052-.007c2.618 1.195 5.453 1.195 8.04 0a.05.05 0 0 1 .053.006c.08.066.164.132.248.195a.051.051 0 0 1-.004.085c-.399.233-.813.43-1.249.595a.051.051 0 0 0-.027.07c.24.466.515.91.817 1.33a.05.05 0 0 0 .056.019 13.225 13.225 0 0 0 4.002-2.02.052.052 0 0 0 .02-.037c.334-3.451-.558-6.45-2.365-9.107a.04.04 0 0 0-.021-.019Zm-8.198 7.308c-.788 0-1.438-.724-1.438-1.613s.637-1.612 1.438-1.612c.807 0 1.45.73 1.438 1.612 0 .89-.637 1.613-1.438 1.613Zm5.316 0c-.788 0-1.438-.724-1.438-1.613s.637-1.612 1.438-1.612c.808 0 1.45.73 1.438 1.612 0 .89-.63 1.613-1.438 1.613Z"/>
</svg>